<svg xmlns="http://www.w3.org/2000/svg" viewBox="357.47747747747746 373.572 1270.7747747747749 269.802" version="1.1" style="max-height: 500px" width="1270.7747747747749" height="269.802">
<path fill="#FEFEFE" d="m0 0h130v15l-2 7-8 11-8 6-11 3-76 1 10 7 6 5 4 10v2h85v16l-4 10-7 9-7 5-6 2-60 1-1 25h84l1 1v14l-3 9-7 9-8 7-6 2-17 1h-43l-1 13-3 5-3 2h-6l-11-7-24-15-6-5-5-8-2-7-1-114 1-29 4-7 8-5zm-6 26v129l5 8 10 9 20 12 7 4v-122l-3-6-10-7-13-7-7-7-8-13z" transform="translate(412,406)"/>
<path fill="#FEFEFE" d="m0 0h13l16 3 12 6 12 9-1 4-11 11-5-2-8-5-11-4-7-1-16 1-12 5-10 8-7 10-4 9-1 5v17l4 13 6 9-2 4-10 10-4-1-7-11-5-10-3-10-1-14 2-14 4-11 6-11 8-10 10-9 16-8z" transform="translate(725,462)"/>
<path fill="#FEFEFE" d="m0 0h20l3 5 11 36 14 41 12 40 1 6h-20l-5-12-10-30-10-32-12-36-5-17z" transform="translate(1053,465)"/>
<path fill="#FEFEFE" d="m0 0h21l-2 9-7 19-11 36-21 63-1 1h-21l1-5 5-13 9-31 12-36 13-40z" transform="translate(1206,465)"/>
<path fill="#FEFEFE" d="m0 0h19l1 1v127h-20z" transform="translate(818,465)"/>
<path fill="#FEFEFE" d="m0 0h2l13 36 11 30 7 17 14 39v2h-22l-17-47-8-21-10-26 1-7 7-19z" transform="translate(1299,469)"/>
<path fill="#FEFEFE" d="m0 0h21l-1 5-15 39-14 39-4 10-1 1h-21l3-10 15-42 6-14 10-27z" transform="translate(1261,499)"/>
<path fill="#FEFEFE" d="m0 0 5 2 11 9-1 4-9 10-12 8-14 5-12 2h-12l-12-2-15-6-11-7-1-4 12-12 5 1 16 8 13 2 10-2 13-5 8-6z" transform="translate(769,557)"/>
<path fill="#FEFEFE" d="m0 0 2 1 5 14 17 48 5 13 4 9-1 6-9 26-2-1-16-45-8-20-7-21 1-7 6-16z" transform="translate(1138,467)"/>
<path fill="#FEFEFE" d="m0 0 16 3 10 6 10 10 5 10 2 9v12l-3 12-6 9-10 9-4 3-4-2-8-10-2-5 9-4 6-10 1-4v-7l-3-10-5-5-8-4-7-2z" transform="translate(1423,465)"/>
<path fill="#FEFEFE" d="m0 0 19 1v89h-20v-89z" transform="translate(1374,503)"/>
<path fill="#FEFEFE" d="m0 0h20v77h-21v-76z" transform="translate(984,516)"/>
<path fill="#FEFEFE" d="m0 0h10l15 4 10 6 11 9 8 9 5 11 4 13 1 8-1 1h-20l-4-16-7-12-7-6-13-6-12-3z" transform="translate(1539,466)"/>
<path fill="#FEFEFE" d="m0 0h18l2 1-2 13-5 13-6 9-11 12-11 7-15 5-13 1-1-2v-17l15-3 13-7 8-9 5-13 2-9z" transform="translate(1583,532)"/>
<path fill="#FEFEFE" d="m0 0h24l8 11 7 8 9 12 10 13 12 15v1h-25l-13-16-14-19-11-15-7-8z" transform="translate(1399,533)"/>
<path fill="#FEFEFE" d="m0 0h74l2 1v18l-68 1-8-1z" transform="translate(944,465)"/>
<path fill="#FEFEFE" d="m0 0 3 4 13 32 15 39v3h-31z" transform="translate(1502,515)"/>
<path fill="#FEFEFE" d="m0 0h20v57h-20z" transform="translate(601,514)"/>
<path fill="#FEFEFE" d="m0 0h21v32l-1 18h-20z" transform="translate(898,543)"/>
<path fill="#FEFEFE" d="m0 0h19l1 1v47l-1 1h-20v-48z" transform="translate(899,465)"/>
<path fill="#FEFEFE" d="m0 0h51v19h-51z" transform="translate(843,519)"/>
<path fill="#FEFEFE" d="m0 0h47v17h-48v-15z" transform="translate(587,465)"/>
<path fill="#FEFEFE" d="m0 0h44l-5 5-20 15-17 12h-2z" transform="translate(1373,465)"/>
<path fill="#FEFEFE" d="m0 0 47 1v15h-48v-15z" transform="translate(587,577)"/>
<path fill="#FEFEFE" d="m0 0h30l1 1v18l-3 1h-27l-1-1z" transform="translate(1502,465)"/>
<path fill="#FEFEFE" d="m0 0h35v30l-4-2-11-10-11-9-9-8z" transform="translate(754,534)"/>
<path fill="#FEFEFE" d="m0 0h7l5 3 4 5v7l-4 6-3 3-8 1-8-5-3-9 3-6 5-4z" transform="translate(1118,529)"/>
<path fill="#FEFEFE" d="m0 0h19l1 1v19h-21v-18z" transform="translate(984,490)"/>
<path fill="#FEFEFE" d="m0 0h10l5 6 1 2v7l-5 6-2 1h-8l-6-4-3-6 2-6 5-5z" transform="translate(1279,549)"/>
<path fill="#FEFEFE" d="m0 0h18l1 1v18h-20v-18z" transform="translate(1026,465)"/>
<path fill="#FEFEFE" d="m0 0h9l5 4 1 2v8l-5 6-2 1h-7l-6-4-2-4 1-7 4-5z" transform="translate(1509,490)"/>
<path fill="#FEFEFE" d="m0 0 9 1 5 5 1 8-5 6-2 1h-9l-6-6v-8l5-6z" transform="translate(607,486)"/>
<path fill="#FEFEFE" d="m0 0 7 6 7 7-1 3-8 7-3 3-4-2-9-9 1-4z" transform="translate(711,516)"/>
<path fill="#FEFEFE" d="m0 0h9l5 5v9l-5 5h-9l-5-5v-9z" transform="translate(904,519)"/>
<path fill="#FEFEFE" d="m0 0h21l-3 11-6 17h-2l-9-24z" transform="translate(1273,465)"/>
</svg>